<?xml version="1.0" standalone="no"?>
<svg xmlns:xlink="http://www.w3.org/1999/xlink" xmlns="http://www.w3.org/2000/svg" class="vtree" width="960" height="800"><style>
.vtree-node text { font: 14px sans-serif; }
.vtree-link { fill: none; stroke: #888; stroke-width: 2px; }
.vtree-table { stroke-width: 2px; stroke: steelblue; }
path.vtree-table { fill: white; }
g.vtree-node rect { fill: white; stroke: black; stroke-width: 1px; }
g.vtree-node rect.number-text { fill: #d8f0ed; }
g.vtree-node rect.string-text { fill: #e7f0db; }
g.vtree-node rect.boolean-text { fill: #e1d8f0; }
g.vtree-node rect.null-text { fill: #888; }
</style><g class="vtree-root" transform="translate(146.49459649125345,98.73874804658192)scale(0.6894693038901906)"><g class="vtree-node" transform="translate(480,34)"><g class="vtree-node" transform=""><g class="vtree-node" transform="translate(-162,0)"><path class="vtree-link" d="M162,157C162,266.5 690,266.5 690,376"/><path class="vtree-link" d="M162,157C162,266.5 419,266.5 419,376"/><path class="vtree-link" d="M162,157C162,262.5 -110,262.5 -110,368"/><g class="vtree-node" transform="translate(-142,345)"><path class="vtree-link" d="M32,23C32,65.5 32,65.5 32,108"/><g class="vtree-node" transform="translate(-123,77)"><path class="vtree-link" d="M155,31C155,77 451,77 451,123"/><path class="vtree-link" d="M155,31C155,77 206,77 206,123"/><path class="vtree-link" d="M155,31C155,73 -90,73 -90,115"/><g class="vtree-node" transform="translate(-122,92)"><path class="vtree-link" d="M32,23C32,61.5 32,61.5 32,100"/><g class="vtree-node" transform="translate(-9,77)"><path class="vtree-link" d="M41,23C41,71 41,71 41,119"/><g class="vtree-node" transform="translate(-126,77)"><g transform="translate(0,19)"><g transform="translate(0,0)"><rect class="string-text" x="0" y="0" width="112" height="23"/><text x="4" y="19">frameworkName</text></g><g transform="translate(112,0)"><rect class="string-text" x="0" y="0" width="221" height="23"/><text x="4" y="19">Framework { "type": "string" }</text></g><g transform="translate(0,23)"><rect class="string-text" x="0" y="0" width="112" height="23"/><text x="4" y="19">mappingId</text></g><g transform="translate(112,23)"><rect class="string-text" x="0" y="0" width="221" height="23"/><text x="4" y="19">Framework item(s) ID(s) { "type"...</text></g></g><g><text x="167" y="15" text-anchor="middle">framework</text></g></g><g transform="translate(33,19)"><g transform="translate(0,0)"><rect class="string-text" x="0" y="0" width="8" height="8"/><text x="4" y="4"> </text></g><g transform="translate(8,0)"><rect class="string-text" x="0" y="0" width="8" height="8"/><text x="4" y="4"> </text></g></g><g><text x="41" y="15" text-anchor="middle">frameworks</text></g></g><g transform="translate(24,19)"><g transform="translate(0,0)"><rect class="string-text" x="0" y="0" width="8" height="8"/><text x="4" y="4"> </text></g><g transform="translate(8,0)"><rect class="string-text" x="0" y="0" width="8" height="8"/><text x="4" y="4"> </text></g></g><g><text x="32" y="15" text-anchor="middle">mapping</text></g></g><g class="vtree-node" transform="translate(86,92)"><g transform="translate(0,19)"><g transform="translate(0,0)"><rect class="string-text" x="0" y="0" width="69" height="23"/><text x="4" y="19">reference</text></g><g transform="translate(69,0)"><rect class="string-text" x="0" y="0" width="170" height="23"/><text x="4" y="19">KB URL { "type": "string" }</text></g></g><g><text x="120" y="15" text-anchor="middle">references</text></g></g><g class="vtree-node" transform="translate(335,92)"><g transform="translate(0,19)"><g transform="translate(0,0)"><rect class="string-text" x="0" y="0" width="75" height="23"/><text x="4" y="19">correlation</text></g><g transform="translate(75,0)"><rect class="string-text" x="0" y="0" width="157" height="23"/><text x="4" y="19">Query { "type": "string" }</text></g></g><g><text x="116" y="15" text-anchor="middle">correlations</text></g></g><g transform="translate(0,19)"><g transform="translate(0,0)"><rect class="string-text" x="0" y="0" width="82" height="23"/><text x="4" y="19">sourceType</text></g><g transform="translate(82,0)"><rect class="string-text" x="0" y="0" width="227" height="23"/><text x="4" y="19">Log source type according to sou...</text></g></g><g><text x="155" y="15" text-anchor="middle">observables</text></g></g><g transform="translate(24,19)"><g transform="translate(0,0)"><rect class="string-text" x="0" y="0" width="8" height="8"/><text x="4" y="4"> </text></g><g transform="translate(8,0)"><rect class="string-text" x="0" y="0" width="8" height="8"/><text x="4" y="4"> </text></g></g><g><text x="32" y="15" text-anchor="middle">observer</text></g></g><g class="vtree-node" transform="translate(312,345)"><g transform="translate(0,19)"><g transform="translate(0,0)"><rect class="string-text" x="0" y="0" width="38" height="23"/><text x="4" y="19">lines</text></g><g transform="translate(38,0)"><rect class="string-text" x="0" y="0" width="175" height="23"/><text x="4" y="19">Log lines { "type": "string" }</text></g></g><g><text x="107" y="15" text-anchor="middle">log</text></g></g><g class="vtree-node" transform="translate(535,345)"><g transform="translate(0,19)"><g transform="translate(0,0)"><rect class="string-text" x="0" y="0" width="108" height="23"/><text x="4" y="19">originalLocation</text></g><g transform="translate(108,0)"><rect class="string-text" x="0" y="0" width="202" height="23"/><text x="4" y="19">Log original location { "type": ...</text></g></g><g><text x="155" y="15" text-anchor="middle">origin</text></g></g><g transform="translate(0,19)"><g transform="translate(0,0)"><rect class="string-text" x="0" y="0" width="93" height="23"/><text x="4" y="19">id</text></g><g transform="translate(93,0)"><rect class="string-text" x="0" y="0" width="230" height="23"/><text x="4" y="19">Unix time stamp + UID { "type": ...</text></g><g transform="translate(0,23)"><rect class="string-text" x="0" y="0" width="93" height="23"/><text x="4" y="19">logType</text></g><g transform="translate(93,23)"><rect class="string-text" x="0" y="0" width="230" height="23"/><text x="4" y="19">Log type { "type": "string" }</text></g><g transform="translate(0,46)"><rect class="string-text" x="0" y="0" width="93" height="23"/><text x="4" y="19">pokeAi</text></g><g transform="translate(93,46)"><rect class="string-text" x="0" y="0" width="230" height="23"/><text x="4" y="19">Poke AI .jpg private URL { "type...</text></g><g transform="translate(0,69)"><rect class="string-text" x="0" y="0" width="93" height="23"/><text x="4" y="19">fuzzyHash</text></g><g transform="translate(93,69)"><rect class="string-text" x="0" y="0" width="230" height="23"/><text x="4" y="19">SSDEEP { "type": "string" }</text></g><g transform="translate(0,92)"><rect class="string-text" x="0" y="0" width="93" height="23"/><text x="4" y="19">author</text></g><g transform="translate(93,92)"><rect class="string-text" x="0" y="0" width="230" height="23"/><text x="4" y="19">Author { "type": "string" }</text></g><g transform="translate(0,115)"><rect class="string-text" x="0" y="0" width="93" height="23"/><text x="4" y="19">synthetic</text></g><g transform="translate(93,115)"><rect class="string-text" x="0" y="0" width="230" height="23"/><text x="4" y="19">GAN generated { "type": "boolean...</text></g><g transform="translate(0,138)"><rect class="string-text" x="0" y="0" width="93" height="23"/><text x="4" y="19">anonymized</text></g><g transform="translate(93,138)"><rect class="string-text" x="0" y="0" width="230" height="23"/><text x="4" y="19">Anonymized { "type": "boolean" }</text></g><g transform="translate(0,161)"><rect class="string-text" x="0" y="0" width="93" height="23"/><text x="4" y="19">lines</text></g><g transform="translate(93,161)"><rect class="string-text" x="0" y="0" width="230" height="23"/><text x="4" y="19">Number of log lines { "type": "i...</text></g><g transform="translate(0,184)"><rect class="string-text" x="0" y="0" width="93" height="23"/><text x="4" y="19">lineSeparator</text></g><g transform="translate(93,184)"><rect class="string-text" x="0" y="0" width="230" height="23"/><text x="4" y="19">Line separator { "type": "string...</text></g><g transform="translate(0,207)"><rect class="string-text" x="0" y="0" width="93" height="23"/><text x="4" y="19">characters</text></g><g transform="translate(93,207)"><rect class="string-text" x="0" y="0" width="230" height="23"/><text x="4" y="19">Log character count { "type": "i...</text></g><g transform="translate(0,230)"><rect class="string-text" x="0" y="0" width="93" height="23"/><text x="4" y="19">cat</text></g><g transform="translate(93,230)"><rect class="string-text" x="0" y="0" width="230" height="23"/><text x="4" y="19">Categories { "type": "string" }</text></g><g transform="translate(0,253)"><rect class="string-text" x="0" y="0" width="93" height="23"/><text x="4" y="19">tag</text></g><g transform="translate(93,253)"><rect class="string-text" x="0" y="0" width="230" height="23"/><text x="4" y="19">Tags { "type": "string" }</text></g></g><g><text x="162" y="15" text-anchor="middle">[0]</text></g></g></g></g></g></svg>
